<mxfile host="app.diagrams.net" modified="2022-09-15T07:34:37.729Z" agent="5.0 (Macintosh; Intel Mac OS X 10_15_7) AppleWebKit/537.36 (KHTML, like Gecko) Chrome/105.0.0.0 Safari/537.36" etag="Q2BlY2G7QEFjSe4lpWgh" version="20.3.0" type="github">
  <diagram id="C6hMzfL7n5FqSkuB1bBp" name="第 1 页">
    <mxGraphModel dx="3533" dy="1455" grid="1" gridSize="10" guides="1" tooltips="1" connect="1" arrows="1" fold="1" page="1" pageScale="1" pageWidth="827" pageHeight="1169" math="0" shadow="0">
      <root>
        <mxCell id="0" />
        <mxCell id="1" parent="0" />
        <mxCell id="YwEXAxHNm58dBuL5HXeY-1" value="" style="rounded=0;whiteSpace=wrap;html=1;" vertex="1" parent="1">
          <mxGeometry x="-600" y="90" width="1420" height="1090" as="geometry" />
        </mxCell>
        <mxCell id="YwEXAxHNm58dBuL5HXeY-19" value="" style="rounded=0;whiteSpace=wrap;html=1;fontSize=22;" vertex="1" parent="1">
          <mxGeometry x="-330" y="270" width="880" height="690" as="geometry" />
        </mxCell>
        <mxCell id="YwEXAxHNm58dBuL5HXeY-2" value="&lt;font style=&quot;font-size: 22px;&quot;&gt;用户&lt;/font&gt;" style="shape=umlActor;verticalLabelPosition=bottom;verticalAlign=top;html=1;outlineConnect=0;" vertex="1" parent="1">
          <mxGeometry x="-460" y="540" width="30" height="60" as="geometry" />
        </mxCell>
        <mxCell id="YwEXAxHNm58dBuL5HXeY-4" value="&lt;font style=&quot;font-size: 22px;&quot;&gt;视频呼叫&lt;/font&gt;" style="ellipse;whiteSpace=wrap;html=1;" vertex="1" parent="1">
          <mxGeometry x="-250" y="450" width="190" height="70" as="geometry" />
        </mxCell>
        <mxCell id="YwEXAxHNm58dBuL5HXeY-5" value="&lt;font style=&quot;font-size: 22px;&quot;&gt;用户&lt;/font&gt;" style="shape=umlActor;verticalLabelPosition=bottom;verticalAlign=top;html=1;outlineConnect=0;" vertex="1" parent="1">
          <mxGeometry x="590" y="540" width="30" height="60" as="geometry" />
        </mxCell>
        <mxCell id="YwEXAxHNm58dBuL5HXeY-6" value="&lt;font style=&quot;font-size: 22px;&quot;&gt;视频接听&lt;/font&gt;" style="ellipse;whiteSpace=wrap;html=1;" vertex="1" parent="1">
          <mxGeometry x="230" y="450" width="190" height="70" as="geometry" />
        </mxCell>
        <mxCell id="YwEXAxHNm58dBuL5HXeY-7" value="&lt;font style=&quot;font-size: 22px;&quot;&gt;语音呼叫&lt;/font&gt;" style="ellipse;whiteSpace=wrap;html=1;" vertex="1" parent="1">
          <mxGeometry x="-250" y="340" width="190" height="70" as="geometry" />
        </mxCell>
        <mxCell id="YwEXAxHNm58dBuL5HXeY-8" value="&lt;font style=&quot;font-size: 22px;&quot;&gt;语音接听&lt;/font&gt;" style="ellipse;whiteSpace=wrap;html=1;" vertex="1" parent="1">
          <mxGeometry x="230" y="340" width="190" height="70" as="geometry" />
        </mxCell>
        <mxCell id="YwEXAxHNm58dBuL5HXeY-9" value="&lt;span style=&quot;font-size: 22px;&quot;&gt;加入会议&lt;/span&gt;" style="ellipse;whiteSpace=wrap;html=1;" vertex="1" parent="1">
          <mxGeometry x="15" y="690" width="190" height="70" as="geometry" />
        </mxCell>
        <mxCell id="YwEXAxHNm58dBuL5HXeY-10" value="&lt;span style=&quot;font-size: 22px;&quot;&gt;创建会议&lt;/span&gt;" style="ellipse;whiteSpace=wrap;html=1;" vertex="1" parent="1">
          <mxGeometry x="15" y="800" width="190" height="70" as="geometry" />
        </mxCell>
        <mxCell id="YwEXAxHNm58dBuL5HXeY-11" value="" style="endArrow=classic;html=1;rounded=0;fontSize=22;" edge="1" parent="1">
          <mxGeometry width="50" height="50" relative="1" as="geometry">
            <mxPoint x="-410" y="580" as="sourcePoint" />
            <mxPoint x="-260" y="380" as="targetPoint" />
          </mxGeometry>
        </mxCell>
        <mxCell id="YwEXAxHNm58dBuL5HXeY-12" value="" style="endArrow=classic;html=1;rounded=0;fontSize=22;" edge="1" parent="1">
          <mxGeometry width="50" height="50" relative="1" as="geometry">
            <mxPoint x="-400" y="610" as="sourcePoint" />
            <mxPoint x="-10" y="570" as="targetPoint" />
          </mxGeometry>
        </mxCell>
        <mxCell id="YwEXAxHNm58dBuL5HXeY-14" value="" style="endArrow=classic;html=1;rounded=0;fontSize=22;" edge="1" parent="1">
          <mxGeometry width="50" height="50" relative="1" as="geometry">
            <mxPoint x="-400" y="680" as="sourcePoint" />
            <mxPoint y="830" as="targetPoint" />
          </mxGeometry>
        </mxCell>
        <mxCell id="YwEXAxHNm58dBuL5HXeY-15" value="" style="endArrow=classic;html=1;rounded=0;fontSize=22;" edge="1" parent="1">
          <mxGeometry width="50" height="50" relative="1" as="geometry">
            <mxPoint x="570" y="540" as="sourcePoint" />
            <mxPoint x="414" y="390" as="targetPoint" />
          </mxGeometry>
        </mxCell>
        <mxCell id="YwEXAxHNm58dBuL5HXeY-16" value="" style="endArrow=classic;html=1;rounded=0;fontSize=22;" edge="1" parent="1">
          <mxGeometry width="50" height="50" relative="1" as="geometry">
            <mxPoint x="560" y="590" as="sourcePoint" />
            <mxPoint x="220" y="570" as="targetPoint" />
          </mxGeometry>
        </mxCell>
        <mxCell id="YwEXAxHNm58dBuL5HXeY-17" value="" style="endArrow=classic;html=1;rounded=0;fontSize=22;" edge="1" parent="1">
          <mxGeometry width="50" height="50" relative="1" as="geometry">
            <mxPoint x="550" y="630" as="sourcePoint" />
            <mxPoint x="210" y="730" as="targetPoint" />
          </mxGeometry>
        </mxCell>
        <mxCell id="YwEXAxHNm58dBuL5HXeY-18" value="" style="endArrow=classic;html=1;rounded=0;fontSize=22;" edge="1" parent="1">
          <mxGeometry width="50" height="50" relative="1" as="geometry">
            <mxPoint x="560" y="660" as="sourcePoint" />
            <mxPoint x="220" y="830" as="targetPoint" />
          </mxGeometry>
        </mxCell>
        <mxCell id="YwEXAxHNm58dBuL5HXeY-20" value="&lt;span style=&quot;font-size: 22px;&quot;&gt;在线感知&lt;/span&gt;" style="ellipse;whiteSpace=wrap;html=1;" vertex="1" parent="1">
          <mxGeometry y="535" width="190" height="70" as="geometry" />
        </mxCell>
        <mxCell id="YwEXAxHNm58dBuL5HXeY-21" value="" style="endArrow=classic;html=1;rounded=0;fontSize=22;" edge="1" parent="1">
          <mxGeometry width="50" height="50" relative="1" as="geometry">
            <mxPoint x="550" y="571.25" as="sourcePoint" />
            <mxPoint x="430" y="500" as="targetPoint" />
          </mxGeometry>
        </mxCell>
        <mxCell id="YwEXAxHNm58dBuL5HXeY-22" value="" style="endArrow=classic;html=1;rounded=0;fontSize=22;" edge="1" parent="1">
          <mxGeometry width="50" height="50" relative="1" as="geometry">
            <mxPoint x="-390" y="590" as="sourcePoint" />
            <mxPoint x="-260" y="490" as="targetPoint" />
          </mxGeometry>
        </mxCell>
        <mxCell id="YwEXAxHNm58dBuL5HXeY-24" value="" style="endArrow=block;html=1;rounded=0;fontSize=22;dashed=1;endFill=0;" edge="1" parent="1">
          <mxGeometry width="50" height="50" relative="1" as="geometry">
            <mxPoint x="170" y="540" as="sourcePoint" />
            <mxPoint x="220" y="490" as="targetPoint" />
          </mxGeometry>
        </mxCell>
        <mxCell id="YwEXAxHNm58dBuL5HXeY-25" value="" style="endArrow=block;html=1;rounded=0;fontSize=22;dashed=1;endFill=0;" edge="1" parent="1">
          <mxGeometry width="50" height="50" relative="1" as="geometry">
            <mxPoint x="140" y="530" as="sourcePoint" />
            <mxPoint x="220" y="390" as="targetPoint" />
          </mxGeometry>
        </mxCell>
        <mxCell id="YwEXAxHNm58dBuL5HXeY-26" value="" style="endArrow=block;html=1;rounded=0;fontSize=22;dashed=1;endFill=0;" edge="1" parent="1">
          <mxGeometry width="50" height="50" relative="1" as="geometry">
            <mxPoint x="50" y="520" as="sourcePoint" />
            <mxPoint x="-50" y="370" as="targetPoint" />
          </mxGeometry>
        </mxCell>
        <mxCell id="YwEXAxHNm58dBuL5HXeY-27" value="" style="endArrow=block;html=1;rounded=0;fontSize=22;dashed=1;endFill=0;" edge="1" parent="1">
          <mxGeometry width="50" height="50" relative="1" as="geometry">
            <mxPoint x="10" y="530" as="sourcePoint" />
            <mxPoint x="-50" y="490" as="targetPoint" />
          </mxGeometry>
        </mxCell>
        <mxCell id="YwEXAxHNm58dBuL5HXeY-29" value="" style="endArrow=classic;html=1;rounded=0;fontSize=22;" edge="1" parent="1">
          <mxGeometry width="50" height="50" relative="1" as="geometry">
            <mxPoint x="-410" y="630" as="sourcePoint" />
            <mxPoint x="-10" y="730" as="targetPoint" />
          </mxGeometry>
        </mxCell>
      </root>
    </mxGraphModel>
  </diagram>
</mxfile>
